<?xml version="1.0" standalone="no"?>
<!DOCTYPE svg PUBLIC "-//W3C//DTD SVG 20010904//EN"
 "http://www.w3.org/TR/2001/REC-SVG-20010904/DTD/svg10.dtd">
<svg version="1.0" xmlns="http://www.w3.org/2000/svg"
 width="900.000000pt" height="512.000000pt" viewBox="0 0 900.000000 512.000000"
 preserveAspectRatio="xMidYMid meet">

<g transform="translate(0.000000,512.000000) scale(0.100000,-0.100000)"
fill="#000000" stroke="none">
<path d="M3006 5110 c-103 -18 -216 -101 -264 -196 -44 -87 -43 -40 -40 -2384
l3 -2235 23 -57 c47 -116 162 -208 288 -228 82 -14 2903 -13 2975 0 144 28
257 132 295 272 12 45 14 331 14 1783 l-1 1730 -567 662 -567 662 -1055 -1
c-580 0 -1077 -4 -1104 -8z m1969 -678 c0 -533 1 -547 52 -638 30 -54 106
-124 165 -153 74 -35 146 -41 546 -41 l372 0 0 -1632 c0 -1621 0 -1632 -20
-1674 -12 -24 -39 -54 -62 -70 l-41 -29 -1487 0 -1486 0 -36 24 c-19 13 -46
40 -59 59 l-24 36 -3 2225 c-2 1557 0 2237 8 2263 12 42 60 95 105 114 24 11
219 13 1000 14 l970 0 0 -498z m457 91 c144 -170 342 -401 440 -515 98 -115
178 -210 178 -213 0 -10 -705 -5 -744 6 -55 15 -120 84 -134 141 -11 45 -18
888 -8 888 3 0 123 -138 268 -307z"/>
<path d="M3270 4265 l0 -95 660 0 660 0 0 95 0 95 -660 0 -660 0 0 -95z"/>
<path d="M3270 3695 l0 -95 660 0 660 0 0 95 0 95 -660 0 -660 0 0 -95z"/>
<path d="M3270 3126 l0 -94 1230 0 1230 0 0 94 0 94 -1230 0 -1230 0 0 -94z"/>
<path d="M3270 2560 l0 -90 1230 0 1230 0 0 90 0 90 -1230 0 -1230 0 0 -90z"/>
<path d="M3270 1994 l0 -94 1230 0 1230 0 0 94 0 94 -1230 0 -1230 0 0 -94z"/>
<path d="M3270 1425 l0 -95 1230 0 1230 0 0 95 0 95 -1230 0 -1230 0 0 -95z"/>
<path d="M3270 855 l0 -95 1230 0 1230 0 0 95 0 95 -1230 0 -1230 0 0 -95z"/>
</g>
</svg>
