<?xml version="1.0" standalone="no"?>
<!DOCTYPE svg PUBLIC "-//W3C//DTD SVG 20010904//EN"
 "http://www.w3.org/TR/2001/REC-SVG-20010904/DTD/svg10.dtd">
<svg version="1.0" xmlns="http://www.w3.org/2000/svg"
 width="131.000000pt" height="135.000000pt" viewBox="0 0 131.000000 135.000000"
 preserveAspectRatio="xMidYMid meet">

<g transform="translate(0.000000,135.000000) scale(0.100000,-0.100000)"
fill="#000000" stroke="none">
<path d="M608 1270 c-34 -33 -46 -35 -94 -18 -47 17 -86 -3 -110 -55 -14 -31
-26 -43 -44 -45 -86 -9 -110 -32 -110 -102 0 -48 -2 -50 -39 -69 -51 -27 -70
-70 -49 -114 23 -47 32 -97 18 -97 -6 0 -8 5 -4 13 6 9 4 9 -8 -1 -46 -37 -43
-105 6 -137 32 -21 39 -45 26 -81 -6 -15 -9 -38 -5 -51 7 -30 44 -63 70 -63
30 0 51 -28 59 -78 6 -37 2 -49 -25 -90 -18 -26 -55 -74 -83 -106 l-50 -59 56
6 c31 4 64 10 73 14 14 5 16 2 12 -13 -3 -10 -9 -41 -13 -68 l-7 -48 26 17
c30 19 121 129 164 196 l29 46 23 -18 c30 -25 53 -24 102 4 l39 22 39 -23 c48
-27 72 -28 102 -4 l22 19 48 -71 c26 -39 74 -98 105 -131 65 -67 72 -63 56 25
-8 43 -7 50 5 46 8 -4 40 -9 71 -13 l56 -6 -50 59 c-92 107 -116 149 -108 191
l6 38 -33 -34 c-29 -30 -36 -32 -71 -27 -45 7 -93 -13 -103 -44 -4 -12 -17
-26 -30 -32 -19 -8 -30 -6 -58 11 -43 26 -71 27 -113 0 -41 -25 -69 -18 -90
22 -18 37 -53 51 -103 43 -46 -7 -71 13 -71 57 0 37 -39 79 -74 79 -14 0 -31
9 -39 20 -8 11 -17 17 -21 12 -5 -4 -1 10 8 32 24 57 20 73 -24 117 -22 22
-40 43 -40 47 0 5 11 23 25 42 29 39 33 89 9 125 -20 30 -10 49 42 85 35 23
39 31 42 75 4 62 24 85 71 85 47 0 60 10 85 62 23 46 21 46 112 32 36 -5 45
-2 76 25 44 39 57 39 96 1 35 -33 65 -37 120 -18 31 12 36 11 52 -10 10 -12
25 -22 34 -22 13 0 14 4 5 24 -15 31 -51 50 -83 42 -14 -3 -37 -9 -51 -12 -19
-5 -33 1 -60 25 -47 41 -85 41 -127 1z m-130 -964 c14 -9 -43 -102 -105 -172
l-43 -49 6 35 c3 19 7 45 10 57 l4 23 -40 -21 c-22 -11 -44 -19 -49 -17 -5 1
16 37 46 78 l54 75 53 -1 c29 0 58 -4 64 -8z m559 -70 c56 -79 54 -90 -9 -56
-23 12 -36 15 -33 7 2 -6 6 -31 9 -55 l6 -43 -24 18 c-14 10 -26 22 -26 27 0
4 -13 25 -29 45 -15 20 -39 55 -52 79 -29 52 -21 60 54 56 l51 -2 53 -76z"/>
<path d="M934 1141 c13 -14 31 -21 56 -21 50 0 70 -24 70 -83 0 -38 4 -49 26
-64 14 -10 37 -28 52 -39 l26 -22 -18 -40 c-18 -40 -19 -77 -2 -74 8 1 24 37
42 92 10 30 -15 69 -56 90 -38 20 -40 22 -40 68 0 26 -7 57 -15 69 -15 21 -28
26 -115 39 l-45 6 19 -21z"/>
<path d="M543 1131 c-158 -58 -255 -195 -257 -361 -2 -170 99 -315 259 -371
84 -29 209 -23 290 16 79 38 148 109 188 193 29 60 32 76 32 157 0 77 -4 98
-28 150 -34 72 -66 116 -113 152 -27 20 -38 23 -43 14 -5 -8 10 -30 44 -62 92
-87 129 -214 101 -344 -8 -39 -9 -39 -18 -15 -5 14 -10 42 -10 62 1 21 -3 40
-9 43 -13 9 -11 63 4 68 9 3 8 6 -3 10 -8 4 -81 31 -162 61 l-146 54 -163 -61
-162 -61 81 -30 82 -31 0 -87 c0 -111 2 -113 160 -113 161 0 170 6 170 119 l0
83 43 17 c54 20 57 20 57 -4 0 -11 -4 -20 -9 -20 -4 0 -11 -29 -15 -65 -4 -36
-9 -72 -12 -80 -5 -12 3 -15 40 -15 l47 0 -15 -28 c-22 -42 -111 -121 -164
-145 -38 -18 -65 -22 -142 -22 -83 0 -102 3 -151 28 -62 30 -136 103 -167 164
-47 92 -47 224 0 317 31 60 105 133 165 163 69 33 183 42 255 20 40 -13 48
-13 52 -1 9 23 -39 37 -139 41 -71 3 -101 -1 -142 -16z m241 -247 c56 -21 105
-40 109 -44 4 -4 -44 -26 -107 -49 l-115 -43 -115 43 c-63 24 -113 45 -111 47
7 8 210 81 224 82 8 0 60 -16 115 -36z m-166 -150 c53 -18 53 -18 115 4 34 12
65 22 70 22 4 0 7 -31 7 -69 0 -68 0 -69 -31 -80 -40 -14 -179 -14 -213 -1
-25 9 -26 13 -26 81 0 53 3 70 13 67 6 -3 36 -13 65 -24z m349 -90 c-1 -2 -9
1 -16 5 -9 6 -11 16 -5 32 7 24 7 24 15 -5 5 -17 7 -31 6 -32z"/>
<path d="M1166 777 c5 -14 2 -16 -12 -11 -16 6 -15 3 4 -19 29 -31 23 -58 -17
-87 -36 -25 -46 -61 -29 -105 10 -30 9 -37 -7 -55 -10 -11 -29 -20 -42 -20
-25 0 -73 -44 -73 -67 0 -16 28 -4 50 21 7 9 23 16 36 16 49 0 87 68 65 116
-14 32 -17 26 30 80 35 40 40 52 35 78 -4 17 -16 40 -27 51 -17 17 -19 17 -13
2z"/>
</g>
</svg>
