<svg version="1.1" id="Layer_1" xmlns="http://www.w3.org/2000/svg" xmlns:xlink="http://www.w3.org/1999/xlink" x="0px" y="0px"
	 width="100%" viewBox="0 0 250 250" enable-background="new 0 0 250 250" xml:space="preserve">
<path fill="#000000" opacity="1.000000" stroke="none" 
	d="
M144.000000,251.000000 
	C96.000000,251.000000 48.500004,251.000000 1.000006,251.000000 
	C1.000004,167.666672 1.000004,84.333351 1.000002,1.000018 
	C84.333321,1.000012 167.666641,1.000012 250.999969,1.000006 
	C250.999969,84.333321 250.999969,167.666641 250.999985,250.999969 
	C215.500000,251.000000 180.000000,251.000000 144.000000,251.000000 
M166.883270,56.501251 
	C166.603195,56.319786 166.323120,56.138321 165.903122,55.486126 
	C165.719391,55.180763 165.449936,55.013527 164.803955,54.344223 
	C161.855591,52.411049 159.129059,49.891151 155.909958,48.673973 
	C150.231400,46.526844 144.597229,42.821377 137.764465,45.286606 
	C137.585526,42.828392 137.406586,40.370174 137.788437,37.528168 
	C136.334625,35.679321 135.249725,32.986790 133.350601,32.156418 
	C129.337662,30.401791 127.125603,33.438332 125.990334,36.786270 
	C125.593773,37.955765 126.621857,39.608353 127.015953,40.979546 
	C127.015953,40.979546 126.953064,40.975536 127.016541,41.912304 
	C126.993851,46.375378 126.678291,50.867798 127.120811,55.284256 
	C127.259758,56.670921 129.237564,58.250637 130.742996,59.004768 
	C131.966995,59.617912 133.742889,59.129333 135.799286,59.129333 
	C135.799286,57.135090 135.799286,55.217979 136.442398,52.863953 
	C136.948029,51.279766 137.453659,49.695576 138.241806,48.750275 
	C138.548828,49.830257 138.855850,50.910240 139.040222,52.702831 
	C139.693802,53.744900 140.116776,55.355816 141.040909,55.730469 
	C145.023468,57.345009 149.153015,58.596992 153.155548,60.461720 
	C153.452698,60.315117 153.749847,60.168510 154.495285,59.985218 
	C154.495285,59.985218 154.942825,60.030151 155.043442,60.604275 
	C155.699066,61.069534 156.354675,61.534798 157.470856,61.987274 
	C157.470856,61.987274 157.929245,62.033623 158.211304,62.663143 
	C162.129028,67.478401 166.046738,72.293655 170.016632,77.815453 
	C171.138214,80.440117 171.583572,84.143959 173.569901,85.388618 
	C175.591858,86.655586 179.215302,85.822350 181.927414,85.109489 
	C182.411804,84.982185 181.937378,80.957840 181.763824,78.744003 
	C181.717941,78.158829 181.143539,77.615089 180.930939,76.329414 
	C179.615280,73.944305 178.299622,71.559196 176.412323,68.902496 
	C173.647797,65.258110 170.883255,61.613720 167.910355,57.475479 
	C167.610031,57.301491 167.309692,57.127499 166.996841,57.006607 
	C166.996841,57.006607 167.048660,56.989548 166.883270,56.501251 
M94.168449,181.414246 
	C95.092880,180.880539 96.017303,180.346817 97.607071,179.651016 
	C98.397636,178.164597 99.188202,176.678177 100.663208,174.987656 
	C102.620712,172.884567 104.578209,170.781479 107.546791,167.592102 
	C104.850845,166.559372 102.852371,165.387466 100.723610,165.058426 
	C95.424789,164.239441 93.820305,168.573196 91.141655,172.349487 
	C89.160187,174.906403 87.178719,177.463303 84.953407,180.533813 
	C84.615311,180.984467 84.277206,181.435135 83.432861,182.083405 
	C82.973572,182.342636 82.514282,182.601868 82.004333,182.087173 
	C81.931511,180.066559 81.858688,178.045929 81.910416,175.473175 
	C81.859871,174.726456 81.809326,173.979736 81.913109,172.307159 
	C81.935295,170.311966 82.213776,168.274246 81.892212,166.336090 
	C81.666740,164.977081 80.867264,162.962753 79.885796,162.659439 
	C78.489540,162.227951 75.628380,162.642044 75.261536,163.496796 
	C74.112785,166.173355 73.839897,169.225845 73.071365,172.964706 
	C73.105499,174.668427 73.139641,176.372131 73.014656,178.989960 
	C73.079216,184.631821 73.143784,190.273682 73.088516,196.676208 
	C73.119057,197.443863 73.149597,198.211502 73.062775,199.864365 
	C73.051758,201.184250 73.077126,202.505661 73.022591,203.823746 
	C72.885185,207.144684 73.563972,209.960266 77.652985,209.863464 
	C81.415428,209.774353 81.761871,207.053680 82.057793,203.990829 
	C82.349815,200.968292 83.373032,198.016403 84.554581,194.946579 
	C84.554581,194.946579 85.024582,194.819305 85.586189,195.205566 
	C86.448212,196.446167 87.310226,197.686768 88.316467,199.594391 
	C89.560181,200.886444 90.767052,202.216614 92.056114,203.461716 
	C94.064713,205.401855 95.864571,207.809555 98.258499,209.015091 
	C99.991188,209.887634 102.632263,209.462814 104.679092,208.912720 
	C105.338554,208.735474 106.146431,205.742523 105.597046,205.025284 
	C103.361099,202.106155 100.624794,199.570297 97.960274,196.195679 
	C95.607071,193.552429 93.253860,190.909164 90.990036,187.544418 
	C91.952911,185.694427 92.915787,183.844452 94.168449,181.414246 
M67.946747,194.107330 
	C67.905449,192.061371 67.864151,190.015396 67.897797,187.286087 
	C67.148216,179.199158 65.579910,177.938675 58.239002,180.271439 
	C57.974697,180.453140 57.474930,180.641479 57.479843,180.815613 
	C57.726536,189.556854 57.857601,198.308655 58.503010,207.022125 
	C58.583462,208.108307 61.411598,209.737717 62.969215,209.740707 
	C64.310013,209.743286 66.255966,208.038574 66.853333,206.630219 
	C67.701385,204.630844 67.558052,202.210953 67.890625,199.322617 
	C67.870796,197.874329 67.850967,196.426025 67.946747,194.107330 
M115.984489,116.264793 
	C116.361107,115.193817 116.737724,114.122841 117.722992,112.623444 
	C117.801224,106.595474 115.438255,104.438232 109.963005,103.858116 
	C104.862930,103.317757 103.551651,106.588913 101.473862,110.461975 
	C102.857986,119.314613 108.660973,121.934258 115.984489,116.264793 
M70.475349,88.489746 
	C70.475349,88.489746 70.313797,88.667854 69.680016,88.939529 
	C67.047218,91.759979 67.583893,94.777802 69.739929,97.350601 
	C72.501266,100.645691 75.857246,99.747986 79.940544,97.918945 
	C81.960365,97.897316 83.980179,97.875694 86.931557,97.958443 
	C95.280876,97.914604 103.630188,97.870766 112.835945,97.925064 
	C119.058556,97.263229 123.459816,100.229424 126.955704,105.945816 
	C126.991859,111.948807 127.028015,117.951790 127.032967,124.861366 
	C126.721634,132.448074 126.340294,140.032837 126.130478,147.622345 
	C126.035019,151.075119 127.120613,154.057266 131.158173,154.410339 
	C134.909058,154.738342 138.042404,151.307785 137.901886,147.370148 
	C137.575867,138.233047 137.241653,129.096252 136.955383,119.041595 
	C136.989838,115.032623 137.024292,111.023643 137.118927,106.281357 
	C138.314484,100.315765 142.697052,98.504654 148.953934,97.954857 
	C157.964523,97.935944 166.975128,97.917030 176.900421,97.950554 
	C181.134811,98.487793 185.362961,99.340294 189.606339,99.424522 
	C191.620529,99.464500 194.665817,98.584305 195.450653,97.143875 
	C196.530930,95.161171 196.672012,91.923698 195.773529,89.847908 
	C195.090698,88.270317 192.159210,86.794563 190.230133,86.796951 
	C185.152222,86.803238 180.075333,87.640312 174.061722,88.105850 
	C168.251541,88.077393 162.438248,87.920502 156.632172,88.061378 
	C152.044708,88.172684 147.466125,88.649994 142.134232,89.002243 
	C138.624588,91.039909 135.114944,93.077583 131.334061,94.507614 
	C127.576172,92.625626 123.818283,90.743637 119.567757,88.256111 
	C109.374481,87.940712 99.182564,87.556061 88.987022,87.356720 
	C86.307167,87.304321 83.616104,87.825722 80.267509,88.059105 
	C79.177315,87.881226 78.087120,87.703339 76.362297,87.263306 
	C75.472641,87.338097 74.582993,87.412895 73.166420,87.546951 
	C72.825150,87.638397 72.483871,87.729843 71.786102,87.664490 
	C71.410919,87.888458 71.035736,88.112427 70.475349,88.489746 
M67.618629,171.691605 
	C67.795868,171.235107 68.047813,170.792908 68.138222,170.319809 
	C68.731339,167.216202 67.776329,164.321671 64.918571,163.341263 
	C63.082623,162.711365 59.852562,163.217880 58.630894,164.516510 
	C57.308502,165.922241 54.710400,168.668976 58.284988,171.763458 
	C61.074085,175.753967 63.995819,175.995132 67.618629,171.691605 
M182.874634,184.089752 
	C182.810318,180.766510 184.027908,176.881485 178.230759,176.977570 
	C172.561340,177.071487 174.358414,181.057968 174.045700,184.004333 
	C173.942154,184.979904 174.079971,185.981125 174.059250,187.865311 
	C173.694931,191.255219 173.330597,194.645111 172.581070,198.611862 
	C168.367874,202.020767 167.041916,201.795898 162.969040,196.059723 
	C162.943802,192.363678 162.918579,188.667618 162.938141,184.096634 
	C162.669159,181.082977 164.366364,177.134048 158.801498,176.938400 
	C153.091522,176.737671 154.052841,180.625305 154.016052,184.005432 
	C153.994461,185.989502 154.067368,187.974594 154.051620,190.879135 
	C154.042542,194.246063 154.033463,197.613007 154.007660,201.484879 
	C154.004089,201.653244 154.000519,201.821609 154.272888,202.411804 
	C154.514633,202.645370 154.756393,202.878937 155.311951,203.709732 
	C158.621460,208.773453 164.489258,210.919418 169.903610,209.501160 
	C171.899628,208.978317 174.261017,209.051346 176.276169,209.561691 
	C180.910934,210.735489 183.474106,208.738785 183.133179,203.929108 
	C182.921692,200.945724 182.946823,197.945587 182.914429,194.051590 
	C182.881241,191.021057 182.848053,187.990540 182.874634,184.089752 
M147.500900,107.532715 
	C145.029663,111.139374 145.807922,114.756622 148.457855,117.557526 
	C151.155411,120.408783 154.693756,120.275742 158.577530,117.637787 
	C162.391495,113.468788 162.643799,109.204445 159.274033,105.865410 
	C156.272675,102.891426 151.547562,103.362122 147.500900,107.532715 
M125.761124,67.596489 
	C125.462914,69.765625 125.164703,71.934761 125.093697,74.768135 
	C127.210922,78.940475 130.134140,81.256088 135.586426,78.692795 
	C139.235275,75.908806 141.054794,72.562798 138.558380,67.385559 
	C132.801636,62.803429 131.430603,62.758373 125.761124,67.596489 
M159.644394,79.807770 
	C162.803253,76.787575 162.091370,72.991272 160.090027,70.304497 
	C158.723145,68.469490 155.329391,67.456291 152.790619,67.354645 
	C149.545853,67.224724 147.305878,69.448242 146.541519,73.589462 
	C147.417389,76.146973 147.553452,79.649963 149.337952,81.046242 
	C152.204147,83.288918 156.069901,83.374496 159.644394,79.807770 
M117.958717,73.335197 
	C117.529388,68.610832 113.448532,66.778511 110.163742,66.438171 
	C107.534782,66.165787 103.315903,67.525528 102.242111,72.299744 
	C98.963623,76.242332 103.138077,78.509384 104.771439,80.610413 
	C107.012833,83.493576 110.746201,83.207054 114.155922,81.710846 
	C117.607483,80.196266 118.634529,77.612541 117.958717,73.335197 
M97.198570,71.372139 
	C99.802650,68.594612 102.406731,65.817078 105.621620,62.718967 
	C110.041183,60.497925 114.371140,58.069981 118.902641,56.107388 
	C124.773941,53.564526 126.345215,50.074909 123.801140,43.292744 
	C115.368767,44.592690 107.862473,48.117653 100.610535,53.368767 
	C100.386444,53.549740 100.196808,53.761562 99.565445,54.328121 
	C99.043427,54.885803 98.521408,55.443485 97.424828,56.338825 
	C93.925568,60.552643 90.426315,64.766457 86.521294,69.530373 
	C84.980003,72.826775 83.074203,76.007149 81.979675,79.445763 
	C80.169777,85.131836 81.862144,86.946457 87.733093,85.842720 
	C89.097557,85.586197 90.688301,84.350037 91.381508,83.118172 
	C93.410957,79.511696 95.040245,75.680046 97.198570,71.372139 
M140.060547,184.806885 
	C140.069580,186.191666 140.078629,187.576462 140.045868,189.901886 
	C140.040680,194.709381 140.055542,199.516998 140.023529,204.324310 
	C140.000580,207.773026 141.777649,209.652191 145.108078,209.791061 
	C148.787735,209.944519 149.958099,207.551483 149.957397,204.302979 
	C149.956223,198.857010 149.934235,193.411041 149.956253,187.133606 
	C149.897583,185.743484 149.838913,184.353378 149.845825,182.032745 
	C149.883835,176.560745 149.905350,171.088562 149.966034,165.616806 
	C150.002243,162.350830 148.597839,159.818039 145.303726,159.661514 
	C142.103226,159.509430 140.147476,161.589890 140.045181,165.896469 
	C140.109604,167.922012 140.174042,169.947540 140.164963,172.894394 
	C140.150879,176.587967 140.136780,180.281555 140.060547,184.806885 
M136.955093,176.255676 
	C134.549377,167.875946 130.895187,165.287842 121.095047,165.022751 
	C108.954147,164.694336 108.776390,164.871414 109.039055,177.912643 
	C109.033226,182.265915 109.027397,186.619171 109.014320,191.911072 
	C109.031082,196.238831 109.012772,200.567093 109.075943,204.894165 
	C109.124535,208.221802 111.329140,210.160782 114.170944,209.605011 
	C115.977554,209.251663 117.671638,206.894592 118.803764,205.058426 
	C119.479347,203.962723 119.104126,202.124649 118.968613,200.641556 
	C118.605934,196.672623 120.178413,195.146896 124.299614,194.786728 
	C129.648865,194.319214 134.138870,191.810364 136.522781,185.609406 
	C136.689713,182.739517 136.856628,179.869629 136.955093,176.255676 
M195.187592,185.349106 
	C197.416260,181.965088 200.330170,183.755173 203.227463,183.985916 
	C204.751389,184.107285 206.710342,182.865250 207.866135,181.657990 
	C208.388611,181.112259 207.563293,178.051926 207.126175,177.999649 
	C202.344025,177.427872 197.410355,176.475922 192.735260,177.145386 
	C188.532379,177.747192 187.004990,181.733658 187.056519,186.756180 
	C187.433228,188.334976 187.289093,190.578995 188.288986,191.361862 
	C190.807800,193.333984 193.941132,194.499557 196.625046,196.292465 
	C197.809479,197.083679 198.501434,198.612167 199.416962,199.805923 
	C198.013916,200.369385 196.642899,201.272736 195.199585,201.408707 
	C193.467911,201.571854 191.674591,201.080795 189.242004,201.011444 
	C188.045441,202.411087 186.111908,203.718140 185.920212,205.244019 
	C185.799286,206.206696 188.103638,207.906174 189.627350,208.571472 
	C197.991714,212.223526 204.753479,209.950546 209.961319,201.163940 
	C210.279099,195.267197 207.743927,191.384628 202.066589,189.423889 
	C199.580826,188.565384 197.283722,187.160538 195.187592,185.349106 
M170.573563,126.635406 
	C174.366409,120.283409 178.310043,114.013969 181.860291,107.529160 
	C182.926575,105.581528 184.445953,102.328033 180.840897,101.320816 
	C177.773941,100.463936 174.427673,100.269783 172.227554,104.115318 
	C168.734558,110.220558 164.737885,116.037636 160.384445,122.334663 
	C154.711853,125.372711 149.050278,128.431564 143.362198,131.440308 
	C140.388977,133.013000 138.658463,137.653915 140.397003,140.833878 
	C140.915176,141.781677 143.194977,142.576599 144.326233,142.251953 
	C154.187546,139.422043 163.153198,134.950623 170.573563,126.635406 
M99.746490,132.775665 
	C106.229240,136.022919 112.657127,139.390472 119.249725,142.396835 
	C120.325386,142.887344 122.808441,142.265839 123.473824,141.329163 
	C125.935181,137.864304 123.424973,132.289459 119.221458,131.101730 
	C117.797813,130.699463 116.344818,130.309570 115.014839,129.681824 
	C104.022743,124.493622 96.167534,116.406143 91.904854,104.882019 
	C90.573921,101.283859 85.859413,99.246185 83.118034,101.487572 
	C81.759842,102.598045 81.392326,106.308922 82.093163,108.312920 
	C85.446930,117.902786 91.294456,125.889687 99.746490,132.775665 
z"/>
<path fill="#0D151A" opacity="1.000000" stroke="none" 
	d="
M99.470474,132.553253 
	C91.294456,125.889687 85.446930,117.902786 82.093163,108.312920 
	C81.392326,106.308922 81.759842,102.598045 83.118034,101.487572 
	C85.859413,99.246185 90.573921,101.283859 91.904854,104.882019 
	C96.167534,116.406143 104.022743,124.493622 115.014839,129.681824 
	C116.344818,130.309570 117.797813,130.699463 119.221458,131.101730 
	C123.424973,132.289459 125.935181,137.864304 123.473824,141.329163 
	C122.808441,142.265839 120.325386,142.887344 119.249725,142.396835 
	C112.657127,139.390472 106.229240,136.022919 99.470474,132.553253 
z"/>
<path fill="#0C1518" opacity="1.000000" stroke="none" 
	d="
M136.055725,186.213272 
	C134.138870,191.810364 129.648865,194.319214 124.299614,194.786728 
	C120.178413,195.146896 118.605934,196.672623 118.968613,200.641556 
	C119.104126,202.124649 119.479347,203.962723 118.803764,205.058426 
	C117.671638,206.894592 115.977554,209.251663 114.170944,209.605011 
	C111.329140,210.160782 109.124535,208.221802 109.075943,204.894165 
	C109.012772,200.567093 109.031082,196.238831 109.197617,191.156387 
	C110.013512,188.002060 110.797104,186.091293 114.072556,186.763687 
	C115.581215,187.073364 117.313690,186.292725 119.355759,186.001617 
	C123.370583,185.769226 127.064049,185.689758 128.331726,181.104095 
	C131.142578,182.861908 133.599152,184.537582 136.055725,186.213272 
z"/>
<path fill="#0B1115" opacity="1.000000" stroke="none" 
	d="
M136.910767,119.959343 
	C137.241653,129.096252 137.575867,138.233047 137.901886,147.370148 
	C138.042404,151.307785 134.909058,154.738342 131.158173,154.410339 
	C127.120613,154.057266 126.035019,151.075119 126.130478,147.622345 
	C126.340294,140.032837 126.721634,132.448074 127.416451,124.381775 
	C130.836884,122.587906 133.873825,121.273621 136.910767,119.959343 
z"/>
<path fill="#0D151A" opacity="1.000000" stroke="none" 
	d="
M170.040863,127.038071 
	C163.153198,134.950623 154.187546,139.422043 144.326233,142.251953 
	C143.194977,142.576599 140.915176,141.781677 140.397003,140.833878 
	C138.658463,137.653915 140.388977,133.013000 143.362198,131.440308 
	C149.050278,128.431564 154.711853,125.372711 160.924469,122.387459 
	C164.323288,123.972862 167.182068,125.505463 170.040863,127.038071 
z"/>
<path fill="#1D2629" opacity="1.000000" stroke="none" 
	d="
M100.967255,53.134365 
	C107.862473,48.117653 115.368767,44.592690 123.801140,43.292744 
	C126.345215,50.074909 124.773941,53.564526 118.902641,56.107388 
	C114.371140,58.069981 110.041183,60.497925 105.080368,62.598389 
	C102.278122,60.400803 96.901871,61.469395 97.999390,56.001167 
	C98.521408,55.443485 99.043427,54.885803 99.968727,54.032646 
	C100.585632,53.551250 100.784050,53.350315 100.967255,53.134365 
z"/>
<path fill="#172126" opacity="1.000000" stroke="none" 
	d="
M175.985718,97.898117 
	C166.975128,97.917030 157.964523,97.935944 148.467316,97.553360 
	C147.197327,93.852753 147.338547,89.978012 142.883591,88.964760 
	C147.466125,88.649994 152.044708,88.172684 156.632172,88.061378 
	C162.438248,87.920502 168.251541,88.077393 174.632629,88.452087 
	C175.464279,91.831581 175.724991,94.864853 175.985718,97.898117 
z"/>
<path fill="#0B1115" opacity="1.000000" stroke="none" 
	d="
M153.996933,201.989975 
	C154.000519,201.821609 154.004089,201.653244 154.336426,201.096710 
	C157.424881,199.464874 160.184555,198.221207 162.944229,196.977539 
	C167.041916,201.795898 168.367874,202.020767 173.123306,198.391785 
	C176.732285,197.098801 179.799011,196.025894 182.865753,194.952972 
	C182.946823,197.945587 182.921692,200.945724 183.133179,203.929108 
	C183.474106,208.738785 180.910934,210.735489 176.276169,209.561691 
	C174.261017,209.051346 171.899628,208.978317 169.903610,209.501160 
	C164.489258,210.919418 158.621460,208.773453 155.007721,203.205933 
	C154.467972,202.464737 154.232452,202.227356 153.996933,201.989975 
z"/>
<path fill="#131E23" opacity="1.000000" stroke="none" 
	d="
M170.307220,126.836739 
	C167.182068,125.505463 164.323288,123.972862 161.209381,122.208435 
	C164.737885,116.037636 168.734558,110.220558 172.227554,104.115318 
	C174.427673,100.269783 177.773941,100.463936 180.840897,101.320816 
	C184.445953,102.328033 182.926575,105.581528 181.860291,107.529160 
	C178.310043,114.013969 174.366409,120.283409 170.307220,126.836739 
z"/>
<path fill="#0C1518" opacity="1.000000" stroke="none" 
	d="
M189.907974,200.873032 
	C191.674591,201.080795 193.467911,201.571854 195.199585,201.408707 
	C196.642899,201.272736 198.013916,200.369385 199.416962,199.805923 
	C198.501434,198.612167 197.809479,197.083679 196.625046,196.292465 
	C193.941132,194.499557 190.807800,193.333984 188.288986,191.361862 
	C187.289093,190.578995 187.433228,188.334976 187.504028,186.368668 
	C190.268005,185.988693 192.584473,185.996246 194.900955,186.003784 
	C197.283722,187.160538 199.580826,188.565384 202.066589,189.423889 
	C207.743927,191.384628 210.279099,195.267197 209.601486,201.633057 
	C207.822372,202.930649 206.394043,203.744080 204.985428,204.590286 
	C199.813858,207.697052 193.043152,206.032303 189.907974,200.873032 
z"/>
<path fill="#F93042" opacity="1.000000" stroke="none" 
	d="
M168.118729,57.969330 
	C170.883255,61.613720 173.647797,65.258110 176.535156,69.312897 
	C175.056839,69.616470 173.242020,69.960556 171.893127,69.321373 
	C167.151978,67.074707 162.571014,64.490021 157.929245,62.033623 
	C157.929245,62.033623 157.470856,61.987274 157.128418,61.714642 
	C156.171600,60.971390 155.557220,60.500771 154.942825,60.030151 
	C154.942825,60.030151 154.495285,59.985218 154.067108,59.984665 
	C153.638931,59.984112 153.229050,59.980968 153.229050,59.980968 
	C149.153015,58.596992 145.023468,57.345009 141.040909,55.730469 
	C140.116776,55.355816 139.693802,53.744900 139.478531,52.307549 
	C143.594833,51.685032 147.354736,50.873154 150.930725,51.374096 
	C155.726532,52.045914 160.380112,53.733131 165.094742,54.984413 
	C165.449936,55.013527 165.719391,55.180763 166.122620,55.908897 
	C166.557648,56.572430 166.793167,56.791721 167.048660,56.989548 
	C167.048660,56.989548 166.996841,57.006607 167.174866,57.163925 
	C167.608170,57.537270 167.863449,57.753300 168.118729,57.969330 
z"/>
<path fill="#192327" opacity="1.000000" stroke="none" 
	d="
M109.090431,176.981598 
	C108.776390,164.871414 108.954147,164.694336 121.095047,165.022751 
	C130.895187,165.287842 134.549377,167.875946 136.609985,176.615509 
	C134.035202,175.715897 131.775391,174.506424 129.583496,173.184372 
	C126.837692,171.528214 124.093506,169.219116 121.642113,173.987152 
	C120.494789,175.354935 119.704910,176.664597 118.550095,178.065048 
	C115.153580,177.764420 112.122009,177.373016 109.090431,176.981598 
z"/>
<path fill="#151D22" opacity="1.000000" stroke="none" 
	d="
M176.443069,97.924332 
	C175.724991,94.864853 175.464279,91.831581 175.100800,88.472412 
	C180.075333,87.640312 185.152222,86.803238 190.230133,86.796951 
	C192.159210,86.794563 195.090698,88.270317 195.773529,89.847908 
	C196.672012,91.923698 196.530930,95.161171 195.450653,97.143875 
	C194.665817,98.584305 191.620529,99.464500 189.606339,99.424522 
	C185.362961,99.340294 181.134811,98.487793 176.443069,97.924332 
z"/>
<path fill="#141B1F" opacity="1.000000" stroke="none" 
	d="
M142.508911,88.983505 
	C147.338547,89.978012 147.197327,93.852753 148.000214,97.535431 
	C142.697052,98.504654 138.314484,100.315765 136.671875,106.640060 
	C132.691772,106.797806 129.051422,106.749123 128.908508,101.467468 
	C129.840485,99.123108 130.722885,97.119179 131.605301,95.115250 
	C135.114944,93.077583 138.624588,91.039909 142.508911,88.983505 
z"/>
<path fill="#0C1518" opacity="1.000000" stroke="none" 
	d="
M149.921021,187.965073 
	C149.934235,193.411041 149.956223,198.857010 149.957397,204.302979 
	C149.958099,207.551483 148.787735,209.944519 145.108078,209.791061 
	C141.777649,209.652191 140.000580,207.773026 140.023529,204.324310 
	C140.055542,199.516998 140.040680,194.709381 140.487411,189.440796 
	C143.926315,188.641495 146.923660,188.303284 149.921021,187.965073 
z"/>
<path fill="#DD1B31" opacity="1.000000" stroke="none" 
	d="
M131.469681,94.811432 
	C130.722885,97.119179 129.840485,99.123108 128.700226,101.548355 
	C128.442352,101.969666 128.023148,102.128860 127.750191,101.915634 
	C126.654526,100.899956 125.427841,100.243332 125.076729,99.270653 
	C123.230331,94.155586 119.226128,93.744797 114.674965,93.970200 
	C111.061806,94.149147 107.431091,93.942390 103.808899,93.979004 
	C100.254074,94.014931 97.773392,92.618736 97.293755,88.997955 
	C105.207573,88.928581 112.633980,88.895111 120.060394,88.861649 
	C123.818283,90.743637 127.576172,92.625626 131.469681,94.811432 
z"/>
<path fill="#AC0C21" opacity="1.000000" stroke="none" 
	d="
M73.208344,195.915543 
	C73.143784,190.273682 73.079216,184.631821 73.253036,178.889816 
	C73.664642,180.887772 73.921608,182.983047 73.992569,185.084595 
	C74.115997,188.740479 75.737183,189.335770 78.664803,187.530579 
	C79.495659,187.018250 80.321632,186.497986 81.520355,185.987671 
	C83.505081,186.679199 85.071716,187.540909 86.748764,187.993118 
	C88.061783,188.347153 89.511612,188.193832 90.900658,188.265915 
	C93.253860,190.909164 95.607071,193.552429 97.724075,196.695770 
	C94.382668,197.773041 91.277458,198.350204 88.172249,198.927368 
	C87.310226,197.686768 86.448212,196.446167 85.122467,194.720428 
	C80.841942,194.795364 77.025146,195.355453 73.208344,195.915543 
z"/>
<path fill="#192327" opacity="1.000000" stroke="none" 
	d="
M140.128265,165.031921 
	C140.147476,161.589890 142.103226,159.509430 145.303726,159.661514 
	C148.597839,159.818039 150.002243,162.350830 149.966034,165.616806 
	C149.905350,171.088562 149.883835,176.560745 149.429901,182.551758 
	C146.050201,183.372223 143.086441,183.673676 140.122681,183.975128 
	C140.136780,180.281555 140.150879,176.587967 140.553925,172.529816 
	C143.061447,171.901886 145.311111,171.962296 147.222855,171.188171 
	C147.837936,170.939102 148.157455,167.599472 147.582581,167.215576 
	C145.866989,166.069931 143.649368,165.661240 141.607498,165.030579 
	C141.157501,164.891586 140.623550,165.024323 140.128265,165.031921 
z"/>
<path fill="#0D151A" opacity="1.000000" stroke="none" 
	d="
M96.826309,71.936615 
	C95.040245,75.680046 93.410957,79.511696 91.381508,83.118172 
	C90.688301,84.350037 89.097557,85.586197 87.733093,85.842720 
	C81.862144,86.946457 80.169777,85.131836 81.979675,79.445763 
	C83.074203,76.007149 84.980003,72.826775 87.061172,69.386116 
	C90.676147,70.140114 93.751228,71.038361 96.826309,71.936615 
z"/>
<path fill="#1D191B" opacity="1.000000" stroke="none" 
	d="
M128.023148,102.128860 
	C128.023148,102.128860 128.442352,101.969666 128.650635,101.888779 
	C129.051422,106.749123 132.691772,106.797806 136.641785,107.006721 
	C137.024292,111.023643 136.989838,115.032623 136.933075,119.500473 
	C133.873825,121.273621 130.836884,122.587906 127.432053,123.928482 
	C127.028015,117.951790 126.991859,111.948807 127.132362,105.219635 
	C127.547066,103.705246 127.785103,102.917053 128.023148,102.128860 
z"/>
<path fill="#131E23" opacity="1.000000" stroke="none" 
	d="
M195.044281,185.676453 
	C192.584473,185.996246 190.268005,185.988693 187.519348,185.970917 
	C187.004990,181.733658 188.532379,177.747192 192.735260,177.145386 
	C197.410355,176.475922 202.344025,177.427872 207.126175,177.999649 
	C207.563293,178.051926 208.388611,181.112259 207.866135,181.657990 
	C206.710342,182.865250 204.751389,184.107285 203.227463,183.985916 
	C200.330170,183.755173 197.416260,181.965088 195.044281,185.676453 
z"/>
<path fill="#91091F" opacity="1.000000" stroke="none" 
	d="
M88.244354,199.260880 
	C91.277458,198.350204 94.382668,197.773041 97.780396,197.044525 
	C100.624794,199.570297 103.361099,202.106155 105.597046,205.025284 
	C106.146431,205.742523 105.338554,208.735474 104.679092,208.912720 
	C102.632263,209.462814 99.991188,209.887634 98.258499,209.015091 
	C95.864571,207.809555 94.064713,205.401855 92.056114,203.461716 
	C90.767052,202.216614 89.560181,200.886444 88.244354,199.260880 
z"/>
<path fill="#CB0E28" opacity="1.000000" stroke="none" 
	d="
M127.750191,101.915634 
	C127.785103,102.917053 127.547066,103.705246 127.129463,104.752029 
	C123.459816,100.229424 119.058556,97.263229 112.036606,97.717781 
	C104.359138,97.946823 98.213722,95.245285 91.842003,92.731049 
	C91.163445,91.560051 90.602524,90.667114 89.576546,89.033852 
	C92.537292,89.033852 94.671822,89.033852 96.806351,89.033852 
	C97.773392,92.618736 100.254074,94.014931 103.808899,93.979004 
	C107.431091,93.942390 111.061806,94.149147 114.674965,93.970200 
	C119.226128,93.744797 123.230331,94.155586 125.076729,99.270653 
	C125.427841,100.243332 126.654526,100.899956 127.750191,101.915634 
z"/>
<path fill="#151D22" opacity="1.000000" stroke="none" 
	d="
M97.012436,71.654373 
	C93.751228,71.038361 90.676147,70.140114 87.264053,69.111069 
	C90.426315,64.766457 93.925568,60.552643 97.712112,56.169998 
	C96.901871,61.469395 102.278122,60.400803 104.774963,62.758678 
	C102.406731,65.817078 99.802650,68.594612 97.012436,71.654373 
z"/>
<path fill="#F73340" opacity="1.000000" stroke="none" 
	d="
M137.959290,48.111385 
	C137.453659,49.695576 136.948029,51.279766 135.948303,53.089680 
	C135.454224,53.315407 135.105270,53.317703 134.866302,53.038784 
	C132.524872,51.807308 130.422440,50.854755 128.277893,49.475018 
	C127.808220,46.357071 127.380638,43.666306 126.953064,40.975536 
	C126.953064,40.975536 127.015953,40.979546 127.012085,40.618294 
	C128.845108,35.566643 133.114044,34.587040 137.227646,37.911961 
	C137.406586,40.370174 137.585526,42.828392 137.890259,45.968132 
	C137.997116,47.136902 137.978195,47.624142 137.959290,48.111385 
z"/>
<path fill="#CB1B2E" opacity="1.000000" stroke="none" 
	d="
M117.857155,74.097321 
	C118.634529,77.612541 117.607483,80.196266 114.155922,81.710846 
	C110.746201,83.207054 107.012833,83.493576 104.771439,80.610413 
	C103.138077,78.509384 98.963623,76.242332 102.847290,72.236115 
	C106.385933,72.976204 109.282135,74.004883 112.266838,74.499329 
	C114.058899,74.796204 115.989059,74.259430 117.857155,74.097321 
z"/>
<path fill="#172126" opacity="1.000000" stroke="none" 
	d="
M146.938004,72.983658 
	C147.305878,69.448242 149.545853,67.224724 152.790619,67.354645 
	C155.329391,67.456291 158.723145,68.469490 160.090027,70.304497 
	C162.091370,72.991272 162.803253,76.787575 159.216370,79.604370 
	C156.762299,78.293510 154.739502,77.180031 152.709229,76.080353 
	C150.789566,75.040588 148.862061,74.015305 146.938004,72.983658 
z"/>
<path fill="#F93D49" opacity="1.000000" stroke="none" 
	d="
M138.100540,48.430832 
	C137.978195,47.624142 137.997116,47.136902 138.029556,46.284416 
	C144.597229,42.821377 150.231400,46.526844 155.909958,48.673973 
	C159.129059,49.891151 161.855591,52.411049 164.949341,54.664318 
	C160.380112,53.733131 155.726532,52.045914 150.930725,51.374096 
	C147.354736,50.873154 143.594833,51.685032 139.539856,51.951241 
	C138.855850,50.910240 138.548828,49.830257 138.100540,48.430832 
z"/>
<path fill="#E82C3E" opacity="1.000000" stroke="none" 
	d="
M158.070282,62.348381 
	C162.571014,64.490021 167.151978,67.074707 171.893127,69.321373 
	C173.242020,69.960556 175.056839,69.616470 176.820984,69.448700 
	C178.299622,71.559196 179.615280,73.944305 180.478699,76.671295 
	C178.316025,76.577873 176.603638,75.796730 174.895737,75.806374 
	C173.249573,75.815666 171.608032,76.641693 169.964462,77.108902 
	C166.046738,72.293655 162.129028,67.478401 158.070282,62.348381 
z"/>
<path fill="#1D2629" opacity="1.000000" stroke="none" 
	d="
M138.875214,67.988144 
	C141.054794,72.562798 139.235275,75.908806 135.096924,78.601776 
	C131.360443,77.041794 128.113464,75.572845 124.866493,74.103897 
	C125.164703,71.934761 125.462914,69.765625 126.293060,67.334793 
	C130.745117,68.650299 134.582245,71.320793 138.875214,67.988144 
z"/>
<path fill="#83091A" opacity="1.000000" stroke="none" 
	d="
M67.838333,199.970749 
	C67.558052,202.210953 67.701385,204.630844 66.853333,206.630219 
	C66.255966,208.038574 64.310013,209.743286 62.969215,209.740707 
	C61.411598,209.737717 58.583462,208.108307 58.503010,207.022125 
	C57.857601,198.308655 57.726536,189.556854 57.479843,180.815613 
	C57.474930,180.641479 57.974697,180.453140 58.480820,180.545502 
	C58.834217,183.202866 58.945793,185.586166 59.027733,188.407257 
	C59.013802,190.886536 59.029510,192.927979 59.036217,195.386475 
	C59.576550,201.436325 60.442715,201.845978 67.838333,199.970749 
z"/>
<path fill="#131E23" opacity="1.000000" stroke="none" 
	d="
M147.981918,106.990288 
	C151.547562,103.362122 156.272675,102.891426 159.274033,105.865410 
	C162.643799,109.204445 162.391495,113.468788 158.199478,117.499664 
	C154.541595,113.904457 151.261765,110.447372 147.981918,106.990288 
z"/>
<path fill="#E72133" opacity="1.000000" stroke="none" 
	d="
M169.990540,77.462173 
	C171.608032,76.641693 173.249573,75.815666 174.895737,75.806374 
	C176.603638,75.796730 178.316025,76.577873 180.419128,77.032745 
	C181.143539,77.615089 181.717941,78.158829 181.763824,78.744003 
	C181.937378,80.957840 182.411804,84.982185 181.927414,85.109489 
	C179.215302,85.822350 175.591858,86.655586 173.569901,85.388618 
	C171.583572,84.143959 171.138214,80.440117 169.990540,77.462173 
z"/>
<path fill="#0B1115" opacity="1.000000" stroke="none" 
	d="
M189.574982,200.942230 
	C193.043152,206.032303 199.813858,207.697052 204.985428,204.590286 
	C206.394043,203.744080 207.822372,202.930649 209.593109,202.047302 
	C204.753479,209.950546 197.991714,212.223526 189.627350,208.571472 
	C188.103638,207.906174 185.799286,206.206696 185.920212,205.244019 
	C186.111908,203.718140 188.045441,202.411087 189.574982,200.942230 
z"/>
<path fill="#AB1824" opacity="1.000000" stroke="none" 
	d="
M97.293755,88.997955 
	C94.671822,89.033852 92.537292,89.033852 89.576546,89.033852 
	C90.602524,90.667114 91.163445,91.560051 91.421883,92.727554 
	C88.407364,92.668076 85.695328,92.334030 82.764786,91.759895 
	C82.007584,90.374413 81.468880,89.229012 80.930183,88.083618 
	C83.616104,87.825722 86.307167,87.304321 88.987022,87.356720 
	C99.182564,87.556061 109.374481,87.940712 119.814072,88.558876 
	C112.633980,88.895111 105.207573,88.928581 97.293755,88.997955 
z"/>
<path fill="#D41426" opacity="1.000000" stroke="none" 
	d="
M81.149857,185.981384 
	C80.321632,186.497986 79.495659,187.018250 78.664803,187.530579 
	C75.737183,189.335770 74.115997,188.740479 73.992569,185.084595 
	C73.921608,182.983047 73.664642,180.887772 73.332596,178.432770 
	C73.139641,176.372131 73.105499,174.668427 73.345444,172.497299 
	C73.619522,172.029892 74.016685,171.954803 74.124741,172.300995 
	C76.750481,173.773224 79.268181,174.899277 81.785873,176.025314 
	C81.858688,178.045929 81.931511,180.066559 81.961700,182.793884 
	C81.662659,184.327530 81.406250,185.154449 81.149857,185.981384 
z"/>
<path fill="#9B0E21" opacity="1.000000" stroke="none" 
	d="
M80.598846,88.071365 
	C81.468880,89.229012 82.007584,90.374413 82.851677,92.081970 
	C84.104706,94.380783 85.052353,96.117424 86.000000,97.854065 
	C83.980179,97.875694 81.960365,97.897316 79.474167,97.482056 
	C77.438004,96.054375 75.928352,94.353867 74.286400,94.214729 
	C70.399376,93.885361 68.567383,92.736183 70.313797,88.667854 
	C70.313797,88.667854 70.475349,88.489746 70.825325,88.362976 
	C71.497734,88.097908 71.820168,87.959595 72.142601,87.821289 
	C72.483871,87.729843 72.825150,87.638397 73.758377,87.607300 
	C75.232529,87.620247 76.114723,87.572853 76.996925,87.525459 
	C78.087120,87.703339 79.177315,87.881226 80.598846,88.071365 
z"/>
<path fill="#12181B" opacity="1.000000" stroke="none" 
	d="
M162.956635,196.518631 
	C160.184555,198.221207 157.424881,199.464874 154.344788,200.844238 
	C154.033463,197.613007 154.042542,194.246063 154.420486,190.390244 
	C157.490692,188.258102 160.192017,186.614838 162.893341,184.971573 
	C162.918579,188.667618 162.943802,192.363678 162.956635,196.518631 
z"/>
<path fill="#DD1B31" opacity="1.000000" stroke="none" 
	d="
M101.985847,110.039902 
	C103.551651,106.588913 104.862930,103.317757 109.963005,103.858116 
	C115.438255,104.438232 117.801224,106.595474 117.046265,112.728699 
	C112.841660,112.290489 109.313797,111.747025 105.446320,111.193832 
	C104.066422,110.802704 103.026131,110.421303 101.985847,110.039902 
z"/>
<path fill="#151D22" opacity="1.000000" stroke="none" 
	d="
M121.999557,173.929031 
	C124.093506,169.219116 126.837692,171.528214 129.583496,173.184372 
	C131.775391,174.506424 134.035202,175.715897 136.644211,176.987549 
	C136.856628,179.869629 136.689713,182.739517 136.289246,185.911346 
	C133.599152,184.537582 131.142578,182.861908 128.308563,180.721252 
	C128.339996,175.910339 124.678123,175.380600 121.999557,173.929031 
z"/>
<path fill="#172126" opacity="1.000000" stroke="none" 
	d="
M162.915741,184.534103 
	C160.192017,186.614838 157.490692,188.258102 154.443558,189.930298 
	C154.067368,187.974594 153.994461,185.989502 154.016052,184.005432 
	C154.052841,180.625305 153.091522,176.737671 158.801498,176.938400 
	C164.366364,177.134048 162.669159,181.082977 162.915741,184.534103 
z"/>
<path fill="#83091A" opacity="1.000000" stroke="none" 
	d="
M84.075470,195.033539 
	C83.373032,198.016403 82.349815,200.968292 82.057793,203.990829 
	C81.761871,207.053680 81.415428,209.774353 77.652985,209.863464 
	C73.563972,209.960266 72.885185,207.144684 73.022591,203.823746 
	C73.077126,202.505661 73.051758,201.184250 73.508194,199.439606 
	C77.515236,199.969269 80.692604,200.017029 82.330383,195.807068 
	C82.493973,195.386566 83.474236,195.283768 84.075470,195.033539 
z"/>
<path fill="#12181B" opacity="1.000000" stroke="none" 
	d="
M182.890091,194.502289 
	C179.799011,196.025894 176.732285,197.098801 173.315918,198.103363 
	C173.330597,194.645111 173.694931,191.255219 174.415955,187.501434 
	C177.453400,186.411728 180.134125,185.685867 182.814865,184.960007 
	C182.848053,187.990540 182.881241,191.021057 182.890091,194.502289 
z"/>
<path fill="#0D151A" opacity="1.000000" stroke="none" 
	d="
M147.741409,107.261505 
	C151.261765,110.447372 154.541595,113.904457 157.910324,117.694069 
	C154.693756,120.275742 151.155411,120.408783 148.457855,117.557526 
	C145.807922,114.756622 145.029663,111.139374 147.741409,107.261505 
z"/>
<path fill="#172126" opacity="1.000000" stroke="none" 
	d="
M182.844757,184.524872 
	C180.134125,185.685867 177.453400,186.411728 174.440048,187.054092 
	C174.079971,185.981125 173.942154,184.979904 174.045700,184.004333 
	C174.358414,181.057968 172.561340,177.071487 178.230759,176.977570 
	C184.027908,176.881485 182.810318,180.766510 182.844757,184.524872 
z"/>
<path fill="#141B1F" opacity="1.000000" stroke="none" 
	d="
M109.064743,177.447128 
	C112.122009,177.373016 115.153580,177.764420 118.576019,178.511398 
	C118.959488,181.246811 118.952080,183.626633 118.944679,186.006470 
	C117.313690,186.292725 115.581215,187.073364 114.072556,186.763687 
	C110.797104,186.091293 110.013512,188.002060 109.201241,190.687073 
	C109.027397,186.619171 109.033226,182.265915 109.064743,177.447128 
z"/>
<path fill="#E82C3E" opacity="1.000000" stroke="none" 
	d="
M117.907936,73.716263 
	C115.989059,74.259430 114.058899,74.796204 112.266838,74.499329 
	C109.282135,74.004883 106.385933,72.976204 103.152237,72.069580 
	C103.315903,67.525528 107.534782,66.165787 110.163742,66.438171 
	C113.448532,66.778511 117.529388,68.610832 117.907936,73.716263 
z"/>
<path fill="#EB3F41" opacity="1.000000" stroke="none" 
	d="
M91.713303,172.084137 
	C93.820305,168.573196 95.424789,164.239441 100.723610,165.058426 
	C102.852371,165.387466 104.850845,166.559372 107.546791,167.592102 
	C104.578209,170.781479 102.620712,172.884567 100.229813,174.741898 
	C98.263000,169.801559 94.689926,171.942261 91.713303,172.084137 
z"/>
<path fill="#CB0E28" opacity="1.000000" stroke="none" 
	d="
M59.057365,187.969452 
	C58.945793,185.586166 58.834217,183.202866 58.881691,180.493530 
	C65.579910,177.938675 67.148216,179.199158 67.504066,187.717514 
	C64.426010,188.089111 61.741688,188.029282 59.057365,187.969452 
z"/>
<path fill="#AC0C21" opacity="1.000000" stroke="none" 
	d="
M86.465775,97.906250 
	C85.052353,96.117424 84.104706,94.380783 83.070175,92.322067 
	C85.695328,92.334030 88.407364,92.668076 91.539520,93.005615 
	C98.213722,95.245285 104.359138,97.946823 111.608383,97.668716 
	C103.630188,97.870766 95.280876,97.914604 86.465775,97.906250 
z"/>
<path fill="#D51D2D" opacity="1.000000" stroke="none" 
	d="
M91.427475,172.216812 
	C94.689926,171.942261 98.263000,169.801559 99.887604,174.843948 
	C99.188202,176.678177 98.397636,178.164597 97.037567,179.478607 
	C92.711121,179.544205 88.954178,179.782196 85.197250,180.020203 
	C87.178719,177.463303 89.160187,174.906403 91.427475,172.216812 
z"/>
<path fill="#D51D2D" opacity="1.000000" stroke="none" 
	d="
M58.018761,171.149612 
	C54.710400,168.668976 57.308502,165.922241 58.630894,164.516510 
	C59.852562,163.217880 63.082623,162.711365 64.918571,163.341263 
	C67.776329,164.321671 68.731339,167.216202 68.138222,170.319809 
	C68.047813,170.792908 67.795868,171.235107 66.981842,171.786591 
	C63.569622,171.637589 60.794193,171.393600 58.018761,171.149612 
z"/>
<path fill="#12181B" opacity="1.000000" stroke="none" 
	d="
M146.739761,73.286560 
	C148.862061,74.015305 150.789566,75.040588 152.709229,76.080353 
	C154.739502,77.180031 156.762299,78.293510 158.897797,79.749100 
	C156.069901,83.374496 152.204147,83.288918 149.337952,81.046242 
	C147.553452,79.649963 147.417389,76.146973 146.739761,73.286560 
z"/>
<path fill="#E82C3E" opacity="1.000000" stroke="none" 
	d="
M74.016685,171.954803 
	C74.016685,171.954803 73.619522,172.029892 73.423592,172.081284 
	C73.839897,169.225845 74.112785,166.173355 75.261536,163.496796 
	C75.628380,162.642044 78.489540,162.227951 79.885796,162.659439 
	C80.867264,162.962753 81.666740,164.977081 81.892212,166.336090 
	C82.213776,168.274246 81.935295,170.311966 81.561440,172.418762 
	C78.960213,170.487183 76.706367,168.497604 74.016685,171.954803 
z"/>
<path fill="#620B18" opacity="1.000000" stroke="none" 
	d="
M69.996902,88.803696 
	C68.567383,92.736183 70.399376,93.885361 74.286400,94.214729 
	C75.928352,94.353867 77.438004,96.054375 79.044449,97.427528 
	C75.857246,99.747986 72.501266,100.645691 69.739929,97.350601 
	C67.583893,94.777802 67.047218,91.759979 69.996902,88.803696 
z"/>
<path fill="#222A30" opacity="1.000000" stroke="none" 
	d="
M140.086731,165.464203 
	C140.623550,165.024323 141.157501,164.891586 141.607498,165.030579 
	C143.649368,165.661240 145.866989,166.069931 147.582581,167.215576 
	C148.157455,167.599472 147.837936,170.939102 147.222855,171.188171 
	C145.311111,171.962296 143.061447,171.901886 140.590668,172.069153 
	C140.174042,169.947540 140.109604,167.922012 140.086731,165.464203 
z"/>
<path fill="#9B0E21" opacity="1.000000" stroke="none" 
	d="
M101.729858,110.250938 
	C103.026131,110.421303 104.066422,110.802704 105.577293,111.507431 
	C108.080788,115.892357 111.724533,116.871109 115.839912,116.947243 
	C108.660973,121.934258 102.857986,119.314613 101.729858,110.250938 
z"/>
<path fill="#AC0C21" opacity="1.000000" stroke="none" 
	d="
M59.027729,188.407257 
	C61.741688,188.029282 64.426010,188.089111 67.466599,188.059189 
	C67.864151,190.015396 67.905449,192.061371 67.451012,194.547363 
	C64.318596,194.981400 61.681908,194.975418 59.045219,194.969437 
	C59.029510,192.927979 59.013802,190.886536 59.027729,188.407257 
z"/>
<path fill="#AB1824" opacity="1.000000" stroke="none" 
	d="
M81.520355,185.987671 
	C81.406250,185.154449 81.662659,184.327530 81.987030,183.180847 
	C82.514282,182.601868 82.973572,182.342636 83.989288,182.177322 
	C87.656693,182.178986 90.767677,182.086731 93.878662,181.994476 
	C92.915787,183.844452 91.952911,185.694427 90.945343,187.905167 
	C89.511612,188.193832 88.061783,188.347153 86.748764,187.993118 
	C85.071716,187.540909 83.505081,186.679199 81.520355,185.987671 
z"/>
<path fill="#DE5E63" opacity="1.000000" stroke="none" 
	d="
M135.105270,53.317703 
	C135.105270,53.317703 135.454224,53.315407 135.626755,53.308136 
	C135.799286,55.217979 135.799286,57.135090 135.799286,59.129333 
	C133.742889,59.129333 131.966995,59.617912 130.742996,59.004768 
	C129.237564,58.250637 127.259758,56.670921 127.120811,55.284256 
	C126.678291,50.867798 126.993851,46.375378 126.984802,41.443920 
	C127.380638,43.666306 127.808220,46.357071 128.225281,49.879845 
	C129.010254,55.537132 130.434265,56.075657 135.105270,53.317703 
z"/>
<path fill="#9B0E21" opacity="1.000000" stroke="none" 
	d="
M59.036221,195.386475 
	C61.681908,194.975418 64.318596,194.981400 67.393204,194.982574 
	C67.850967,196.426025 67.870796,197.874329 67.864479,199.646683 
	C60.442715,201.845978 59.576550,201.436325 59.036221,195.386475 
z"/>
<path fill="#91091F" opacity="1.000000" stroke="none" 
	d="
M84.315033,194.990051 
	C83.474236,195.283768 82.493973,195.386566 82.330383,195.807068 
	C80.692604,200.017029 77.515236,199.969269 73.566879,198.997009 
	C73.149597,198.211502 73.119057,197.443863 73.148430,196.295868 
	C77.025146,195.355453 80.841942,194.795364 84.841660,194.527298 
	C85.024582,194.819305 84.554581,194.946579 84.315033,194.990051 
z"/>
<path fill="#DE5E63" opacity="1.000000" stroke="none" 
	d="
M137.508041,37.720062 
	C133.114044,34.587040 128.845108,35.566643 127.003777,40.648689 
	C126.621857,39.608353 125.593773,37.955765 125.990334,36.786270 
	C127.125603,33.438332 129.337662,30.401791 133.350601,32.156418 
	C135.249725,32.986790 136.334625,35.679321 137.508041,37.720062 
z"/>
<path fill="#131E23" opacity="1.000000" stroke="none" 
	d="
M140.091614,184.391022 
	C143.086441,183.673676 146.050201,183.372223 149.397095,183.017014 
	C149.838913,184.353378 149.897583,185.743484 149.938629,187.549347 
	C146.923660,188.303284 143.926315,188.641495 140.508316,188.970490 
	C140.078629,187.576462 140.069580,186.191666 140.091614,184.391022 
z"/>
<path fill="#222A30" opacity="1.000000" stroke="none" 
	d="
M138.716797,67.686852 
	C134.582245,71.320793 130.745117,68.650299 126.468979,67.024834 
	C131.430603,62.758373 132.801636,62.803429 138.716797,67.686852 
z"/>
<path fill="#CB0E28" opacity="1.000000" stroke="none" 
	d="
M115.912201,116.606018 
	C111.724533,116.871109 108.080788,115.892357 105.916901,111.517151 
	C109.313797,111.747025 112.841660,112.290489 116.741943,112.942909 
	C116.737724,114.122841 116.361107,115.193817 115.912201,116.606018 
z"/>
<path fill="#D41426" opacity="1.000000" stroke="none" 
	d="
M94.023560,181.704361 
	C90.767677,182.086731 87.656693,182.178986 84.242409,182.078522 
	C84.277206,181.435135 84.615311,180.984467 85.075325,180.277008 
	C88.954178,179.782196 92.711121,179.544205 96.704895,179.559662 
	C96.017303,180.346817 95.092880,180.880539 94.023560,181.704361 
z"/>
<path fill="#141B1F" opacity="1.000000" stroke="none" 
	d="
M124.980095,74.436020 
	C128.113464,75.572845 131.360443,77.041794 134.808838,78.791794 
	C130.134140,81.256088 127.210922,78.940475 124.980095,74.436020 
z"/>
<path fill="#E72133" opacity="1.000000" stroke="none" 
	d="
M74.124741,172.300995 
	C76.706367,168.497604 78.960213,170.487183 81.484276,172.881699 
	C81.809326,173.979736 81.859871,174.726456 81.848145,175.749237 
	C79.268181,174.899277 76.750481,173.773224 74.124741,172.300995 
z"/>
<path fill="#AC0C21" opacity="1.000000" stroke="none" 
	d="
M58.151875,171.456543 
	C60.794193,171.393600 63.569622,171.637589 66.704926,171.977814 
	C63.995819,175.995132 61.074085,175.753967 58.151875,171.456543 
z"/>
<path fill="#E82C3E" opacity="1.000000" stroke="none" 
	d="
M154.993134,60.317215 
	C155.557220,60.500771 156.171600,60.971390 156.898148,61.721035 
	C156.354675,61.534798 155.699066,61.069534 154.993134,60.317215 
z"/>
<path fill="#620B18" opacity="1.000000" stroke="none" 
	d="
M76.679611,87.394379 
	C76.114723,87.572853 75.232529,87.620247 74.021835,87.577667 
	C74.582993,87.412895 75.472641,87.338097 76.679611,87.394379 
z"/>
<path fill="#620B18" opacity="1.000000" stroke="none" 
	d="
M71.964355,87.742889 
	C71.820168,87.959595 71.497734,88.097908 70.917923,88.286301 
	C71.035736,88.112427 71.410919,87.888458 71.964355,87.742889 
z"/>
<path fill="#E82C3E" opacity="1.000000" stroke="none" 
	d="
M153.192291,60.221344 
	C153.229050,59.980968 153.638931,59.984112 153.842957,60.003006 
	C153.749847,60.168510 153.452698,60.315117 153.192291,60.221344 
z"/>
<path fill="#F93D49" opacity="1.000000" stroke="none" 
	d="
M168.014542,57.722404 
	C167.863449,57.753300 167.608170,57.537270 167.181122,57.137375 
	C167.309692,57.127499 167.610031,57.301491 168.014542,57.722404 
z"/>
<path fill="#F93D49" opacity="1.000000" stroke="none" 
	d="
M166.965973,56.745399 
	C166.793167,56.791721 166.557648,56.572430 166.192596,56.144260 
	C166.323120,56.138321 166.603195,56.319786 166.965973,56.745399 
z"/>
<path fill="#151D22" opacity="1.000000" stroke="none" 
	d="
M100.788895,53.251564 
	C100.784050,53.350315 100.585632,53.551250 100.206818,53.870708 
	C100.196808,53.761562 100.386444,53.549740 100.788895,53.251564 
z"/>
<path fill="#12181B" opacity="1.000000" stroke="none" 
	d="
M154.134918,202.200897 
	C154.232452,202.227356 154.467972,202.464737 154.850830,202.907318 
	C154.756393,202.878937 154.514633,202.645370 154.134918,202.200897 
z"/>
<path fill="#000000" opacity="1.000000" stroke="none" 
	d="
M119.355759,186.001617 
	C118.952080,183.626633 118.959488,181.246811 118.940964,178.420624 
	C119.704910,176.664597 120.494789,175.354935 121.642113,173.987152 
	C124.678123,175.380600 128.339996,175.910339 127.954285,180.639114 
	C127.064049,185.689758 123.370583,185.769226 119.355759,186.001617 
z"/>
<path fill="#F93D49" opacity="1.000000" stroke="none" 
	d="
M134.866302,53.038784 
	C130.434265,56.075657 129.010254,55.537132 128.267365,50.307030 
	C130.422440,50.854755 132.524872,51.807308 134.866302,53.038784 
z"/>
</svg>