<?xml version="1.0" standalone="no"?>
<!DOCTYPE svg PUBLIC "-//W3C//DTD SVG 20010904//EN"
 "http://www.w3.org/TR/2001/REC-SVG-20010904/DTD/svg10.dtd">
<svg version="1.0" xmlns="http://www.w3.org/2000/svg"
 width="980.000000pt" height="980.000000pt" viewBox="0 0 980.000000 980.000000"
 preserveAspectRatio="xMidYMid meet">

<g transform="translate(0.000000,980.000000) scale(0.100000,-0.100000)"
fill="#000000" stroke="none">
<path d="M3730 8314 c-190 -51 -341 -186 -400 -359 -34 -99 -42 -176 -30 -287
22 -197 91 -351 214 -478 32 -33 44 -51 35 -54 -8 -2 -51 -11 -95 -20 -214
-43 -416 -178 -533 -357 l-44 -66 -74 -7 c-211 -19 -392 -140 -476 -318 -46
-96 -61 -165 -59 -270 3 -227 75 -406 225 -564 l39 -42 -73 -12 c-266 -45
-506 -223 -626 -465 -65 -129 -92 -256 -93 -421 0 -77 3 -95 21 -118 25 -31
61 -34 89 -6 17 17 20 33 20 99 0 401 226 699 590 777 83 18 637 20 741 2 81
-13 115 -3 125 38 5 18 1 34 -13 52 -20 27 -43 35 -126 47 l-47 6 65 72 c76
83 145 213 176 332 31 118 31 306 0 395 -33 95 -82 169 -159 241 -59 56 -161
119 -191 119 -23 0 -9 29 45 94 95 116 238 205 391 243 101 26 695 26 798 0
268 -67 475 -274 544 -542 21 -83 38 -104 87 -105 50 0 72 26 94 115 76 298
321 510 633 544 122 14 494 14 611 1 180 -21 330 -94 451 -221 109 -115 109
-112 27 -153 -121 -61 -231 -178 -277 -295 -97 -248 -24 -574 178 -787 l48
-52 -53 -7 c-76 -10 -116 -29 -124 -59 -17 -68 24 -93 127 -76 50 8 179 10
399 8 307 -4 329 -5 395 -27 212 -70 375 -214 460 -408 40 -89 55 -166 62
-311 5 -119 8 -134 27 -147 29 -21 58 -19 84 5 20 19 22 31 22 123 0 119 -12
207 -42 297 -100 310 -357 534 -675 590 l-72 13 48 53 c145 158 213 338 213
559 0 84 -5 126 -21 175 -73 230 -268 384 -517 406 l-75 7 -36 56 c-52 80
-197 219 -273 264 -89 51 -205 95 -292 109 -40 6 -75 13 -77 15 -3 2 11 20 31
41 141 148 213 318 225 532 10 189 -40 323 -167 450 -114 114 -246 170 -402
170 -156 0 -284 -55 -400 -170 -120 -119 -168 -237 -168 -412 0 -220 84 -432
224 -567 43 -42 45 -51 8 -51 -58 0 -190 -42 -290 -91 -156 -77 -297 -219
-377 -378 l-27 -54 -37 70 c-120 227 -336 390 -586 439 -50 10 -91 19 -93 20
-2 1 23 34 55 72 78 94 120 165 154 264 69 203 63 387 -18 548 -115 230 -399
359 -643 294z m240 -130 c169 -38 305 -189 330 -366 19 -125 -20 -305 -92
-426 -47 -80 -161 -192 -231 -226 -48 -24 -66 -28 -119 -24 -84 5 -144 36
-224 114 -128 127 -192 269 -202 447 -6 121 10 199 55 275 46 77 94 125 163
161 111 60 202 72 320 45z m2058 1 c86 -21 136 -48 204 -113 204 -194 175
-565 -63 -804 -98 -100 -163 -132 -252 -126 -34 2 -80 13 -102 23 -59 28 -195
169 -238 245 -61 111 -82 197 -82 335 0 117 1 122 36 196 58 122 162 209 290
243 70 19 129 19 207 1z m-3063 -1652 c158 -48 279 -188 304 -350 12 -77 -1
-217 -27 -293 -39 -114 -83 -183 -167 -267 -98 -99 -152 -127 -240 -126 -77 1
-134 27 -216 101 -80 72 -150 179 -186 285 -25 73 -28 96 -28 212 0 125 1 132
32 197 97 206 315 306 528 241z m4151 -6 c104 -38 187 -115 242 -226 34 -68
37 -83 40 -175 7 -204 -53 -362 -191 -501 -99 -99 -155 -129 -242 -129 -89 1
-143 29 -239 127 -120 120 -176 239 -195 406 -18 166 23 295 126 397 121 119
301 158 459 101z"/>
<path d="M4735 6104 c-286 -42 -527 -131 -732 -273 -874 -601 -953 -1843 -161
-2548 201 -179 478 -317 756 -375 92 -20 137 -23 317 -22 178 0 226 3 311 22
181 39 370 113 516 201 37 23 69 41 71 41 5 0 112 -138 243 -315 l52 -69 -118
-88 c-130 -95 -145 -113 -130 -152 12 -32 658 -875 719 -939 26 -27 74 -62
111 -80 59 -29 74 -32 160 -32 86 0 101 3 162 32 85 40 151 106 191 191 29 60
32 76 31 157 0 67 -6 103 -21 142 -12 29 -107 172 -215 320 -107 148 -259 357
-338 467 -80 109 -155 205 -167 213 -33 22 -57 12 -168 -71 -55 -42 -103 -76
-107 -76 -10 0 -288 371 -287 384 0 6 24 31 52 55 134 112 293 320 377 491
127 260 187 573 161 840 -15 160 -33 248 -82 395 -179 540 -646 949 -1217
1066 -94 20 -409 34 -487 23z m461 -153 c464 -95 839 -385 1045 -806 92 -189
133 -340 148 -540 12 -163 -4 -341 -45 -495 -53 -197 -174 -427 -305 -579
l-36 -42 -7 32 c-3 17 -6 46 -6 65 0 55 -28 171 -61 250 -118 284 -365 475
-682 529 l-37 6 65 77 c73 87 145 222 170 322 25 102 31 272 11 348 -45 175
-147 307 -296 382 -239 121 -539 60 -700 -142 -90 -114 -130 -228 -130 -376 0
-211 74 -404 214 -559 26 -29 46 -53 44 -53 -2 0 -31 -5 -64 -11 -376 -66
-653 -352 -710 -733 -8 -55 -17 -102 -19 -104 -2 -2 -22 20 -45 50 -168 211
-276 465 -311 726 -17 125 -6 404 19 512 100 422 355 766 726 979 155 88 365
158 546 180 117 15 349 6 466 -18z m-165 -541 c201 -62 324 -254 306 -476 -10
-107 -24 -157 -73 -261 -35 -73 -60 -108 -118 -167 -95 -96 -159 -130 -246
-131 -80 0 -132 23 -213 96 -142 126 -227 318 -227 511 0 305 284 518 571 428z
m287 -1193 c244 -72 429 -247 507 -479 25 -72 29 -102 33 -234 l4 -150 -68
-51 c-273 -201 -608 -304 -939 -290 -322 14 -634 130 -874 326 l-43 35 4 141
c4 116 9 153 31 220 85 258 305 448 573 495 27 5 200 7 384 6 271 -2 345 -6
388 -19z m1313 -1619 c501 -692 463 -635 474 -710 23 -156 -127 -306 -283
-283 -101 15 -127 38 -329 302 -104 135 -252 328 -330 430 -79 102 -143 189
-143 193 0 4 27 27 61 51 33 24 129 95 212 157 83 61 152 112 153 112 2 0 85
-114 185 -252z"/>
</g>
</svg>
